<svg width="24" height="24" viewBox="0 0 24 24" fill="none" xmlns="http://www.w3.org/2000/svg">
<path d="M12 1.5C7.86445 1.5 4.5 5.01434 4.5 9.3341C4.5 15.7703 11.2535 22.0546 11.5411 22.3191C11.6722 22.4396 11.8361 22.5 12 22.5C12.1639 22.5 12.3278 22.4397 12.459 22.3191C12.7465 22.0547 19.5 15.7703 19.5 9.3341C19.5 5.01434 16.1356 1.5 12 1.5ZM12 20.781C10.5069 19.2703 5.8889 14.2032 5.8889 9.3341C5.8889 5.81404 8.63034 2.9502 12 2.9502C15.3697 2.9502 18.1111 5.81404 18.1111 9.3341C18.1111 14.2031 13.4931 19.2702 12 20.781Z" fill="#414F5C"/>
<path d="M12 5.68463C10.0854 5.68463 8.52783 7.32178 8.52783 9.33409C8.52783 11.3465 10.0854 12.9836 12 12.9836C13.9146 12.9836 15.4722 11.3465 15.4722 9.33409C15.4722 7.32178 13.9146 5.68463 12 5.68463ZM12 11.5334C10.8512 11.5334 9.91667 10.5468 9.91667 9.33409C9.91667 8.12147 10.8512 7.13483 12 7.13483C13.1488 7.13483 14.0834 8.1214 14.0834 9.33409C14.0834 10.5468 13.1488 11.5334 12 11.5334Z" fill="#414F5C"/>
</svg>
