<svg width="24" height="24" viewBox="0 0 24 24" fill="none" xmlns="http://www.w3.org/2000/svg">
<path d="M17.3528 22.5C16.247 22.5 15.0825 22.2363 13.8788 21.7284C12.7046 21.2302 11.5205 20.5465 10.3658 19.7163C9.22088 18.8763 8.1151 17.9386 7.06803 16.913C6.03076 15.8679 5.09133 14.7642 4.25955 13.6312C3.41799 12.4591 2.74278 11.287 2.26328 10.154C1.75443 8.94279 1.5 7.7707 1.5 6.66698C1.5 5.90512 1.637 5.18233 1.90121 4.50837C2.17521 3.81488 2.61556 3.17023 3.21249 2.61349C3.96598 1.87116 4.82712 1.5 5.74697 1.5C6.12861 1.5 6.52004 1.58791 6.85275 1.74419C7.23439 1.92 7.55732 2.18372 7.79217 2.53535L10.0624 5.7293C10.2679 6.01256 10.4245 6.28605 10.5322 6.55953C10.6594 6.85256 10.7279 7.14558 10.7279 7.42884C10.7279 7.8 10.6202 8.1614 10.4147 8.50326C10.2679 8.76698 10.0429 9.05023 9.75909 9.33349L9.09366 10.027C9.10345 10.0563 9.11323 10.0758 9.12302 10.0953C9.24045 10.3005 9.4753 10.6521 9.92544 11.1795C10.4049 11.7265 10.8551 12.2247 11.3052 12.6837C11.8826 13.2502 12.3621 13.6995 12.8122 14.0707C13.37 14.5395 13.7321 14.774 13.9473 14.8814L13.9278 14.9302L14.6421 14.227C14.9455 13.9242 15.239 13.6995 15.5228 13.553C16.061 13.2209 16.746 13.1623 17.431 13.4456C17.6855 13.553 17.9595 13.6995 18.253 13.9047L21.5019 16.2098C21.8639 16.454 22.1281 16.7665 22.2847 17.1377C22.4315 17.5088 22.5 17.8507 22.5 18.1926C22.5 18.6614 22.3924 19.1302 22.1869 19.5698C21.9814 20.0093 21.7269 20.3902 21.404 20.7419C20.8462 21.3572 20.2395 21.7967 19.535 22.08C18.8597 22.3535 18.1258 22.5 17.3528 22.5ZM5.74697 2.96512C5.20876 2.96512 4.70969 3.19953 4.2302 3.66837C3.78006 4.08837 3.46692 4.54744 3.2712 5.04558C3.0657 5.55349 2.96785 6.0907 2.96785 6.66698C2.96785 7.57535 3.18313 8.56186 3.6137 9.57767C4.05405 10.613 4.67055 11.6874 5.4534 12.7619C6.23625 13.8363 7.12675 14.8814 8.10531 15.8679C9.08388 16.8349 10.1407 17.7335 11.2269 18.5247C12.2838 19.2963 13.37 19.9214 14.4464 20.3707C16.1198 21.0837 17.6855 21.2498 18.9772 20.7126C19.4762 20.5074 19.9166 20.1949 20.3178 19.7456C20.5429 19.5014 20.719 19.2377 20.8658 18.9251C20.9832 18.6809 21.0419 18.427 21.0419 18.173C21.0419 18.0167 21.0126 17.8605 20.9343 17.6847C20.9049 17.626 20.8462 17.5186 20.6603 17.3916L17.4115 15.0865C17.2158 14.9498 17.0396 14.8521 16.8733 14.7837C16.658 14.6958 16.5699 14.6079 16.2372 14.813C16.0415 14.9107 15.8653 15.0572 15.6696 15.2526L14.9259 15.9851C14.5443 16.3563 13.9571 16.4442 13.507 16.2781L13.2428 16.1609C12.8416 15.946 12.3719 15.614 11.8532 15.1744C11.3835 14.774 10.8747 14.3051 10.2582 13.6995C9.77866 13.2112 9.29916 12.6935 8.80009 12.1172C8.34017 11.58 8.00746 11.1209 7.80196 10.74L7.68453 10.447C7.62582 10.2223 7.60624 10.0953 7.60624 9.9586C7.60624 9.60698 7.73346 9.29442 7.9781 9.05023L8.71202 8.28837C8.90774 8.09302 9.05452 7.90744 9.15238 7.74139C9.23066 7.61442 9.26002 7.50698 9.26002 7.4093C9.26002 7.33116 9.23066 7.21395 9.18173 7.09674C9.11323 6.94046 9.00559 6.76465 8.86859 6.57907L6.59832 3.37535C6.50047 3.2386 6.38304 3.14093 6.23625 3.07256C6.07968 3.00419 5.91333 2.96512 5.74697 2.96512ZM13.9278 14.94L13.7712 15.6042L14.0354 14.9205C13.9865 14.9107 13.9473 14.9205 13.9278 14.94Z" fill="#414F5C"/>
</svg>
