<svg width="68" height="12" viewBox="0 0 68 12" fill="none" xmlns="http://www.w3.org/2000/svg">
<g clip-path="url(#clip0_54_1194)">
<path d="M6 9.18868L9.2445 11.25L8.3835 7.365L11.25 4.75105L7.47525 4.41395L6 0.75L4.52475 4.41395L0.75 4.75105L3.6165 7.365L2.7555 11.25L6 9.18868Z" fill="#B20D35"/>
</g>
<g clip-path="url(#clip1_54_1194)">
<path d="M20 9.18868L23.2445 11.25L22.3835 7.365L25.25 4.75105L21.4752 4.41395L20 0.75L18.5247 4.41395L14.75 4.75105L17.6165 7.365L16.7555 11.25L20 9.18868Z" fill="#B20D35"/>
</g>
<g clip-path="url(#clip2_54_1194)">
<path d="M34 9.18868L37.2445 11.25L36.3835 7.365L39.25 4.75105L35.4752 4.41395L34 0.75L32.5247 4.41395L28.75 4.75105L31.6165 7.365L30.7555 11.25L34 9.18868Z" fill="#B20D35"/>
</g>
<g clip-path="url(#clip3_54_1194)">
<path d="M48 9.18868L51.2445 11.25L50.3835 7.365L53.25 4.75105L49.4752 4.41395L48 0.75L46.5247 4.41395L42.75 4.75105L45.6165 7.365L44.7555 11.25L48 9.18868Z" fill="#B20D35"/>
</g>
<g clip-path="url(#clip4_54_1194)">
<path d="M62 9.18868L65.2445 11.25L64.3835 7.365L67.25 4.75105L63.4752 4.41395L62 0.75L60.5247 4.41395L56.75 4.75105L59.6165 7.365L58.7555 11.25L62 9.18868Z" fill="#B20D35"/>
</g>
<defs>
<clipPath id="clip0_54_1194">
<rect width="12" height="12" fill="white"/>
</clipPath>
<clipPath id="clip1_54_1194">
<rect width="12" height="12" fill="white" transform="translate(14)"/>
</clipPath>
<clipPath id="clip2_54_1194">
<rect width="12" height="12" fill="white" transform="translate(28)"/>
</clipPath>
<clipPath id="clip3_54_1194">
<rect width="12" height="12" fill="white" transform="translate(42)"/>
</clipPath>
<clipPath id="clip4_54_1194">
<rect width="12" height="12" fill="white" transform="translate(56)"/>
</clipPath>
</defs>
</svg>
