<svg width="24" height="24" viewBox="0 0 24 24" fill="none" xmlns="http://www.w3.org/2000/svg">
<path d="M15.7412 13.8543L12.8132 11.6584V7.1851C12.8132 6.73533 12.4496 6.37177 11.9999 6.37177C11.5501 6.37177 11.1865 6.73533 11.1865 7.1851V12.0651C11.1865 12.3212 11.3069 12.5628 11.5119 12.7157L14.7651 15.1557C14.9115 15.2655 15.0824 15.3184 15.2523 15.3184C15.5004 15.3184 15.7444 15.2069 15.9038 14.9922C16.1739 14.6335 16.1007 14.1236 15.7412 13.8543Z" fill="#414F5C"/>
<path d="M12 1.5C6.20995 1.5 1.5 6.20995 1.5 12C1.5 17.7901 6.20995 22.5 12 22.5C17.7901 22.5 22.5 17.7901 22.5 12C22.5 6.20995 17.7901 1.5 12 1.5ZM12 20.8734C7.10786 20.8734 3.12664 16.8921 3.12664 12C3.12664 7.10786 7.10786 3.12664 12 3.12664C16.893 3.12664 20.8734 7.10786 20.8734 12C20.8734 16.8921 16.8921 20.8734 12 20.8734Z" fill="#414F5C"/>
</svg>
