<svg width="24" height="24" viewBox="0 0 24 24" fill="none" xmlns="http://www.w3.org/2000/svg">
<path d="M19.4282 4.57233C15.3312 0.476217 8.66838 0.476217 4.5714 4.57233C0.476198 8.66844 0.476198 15.333 4.5714 19.4291C6.61989 21.4767 9.31005 22.5001 12.0002 22.5001C14.6904 22.5001 17.3797 21.4767 19.4282 19.4291C23.5243 15.333 23.5243 8.66844 19.4282 4.57233ZM16.3327 15.0958C16.6749 15.438 16.6749 15.9913 16.3327 16.3336C16.162 16.5043 15.9379 16.5901 15.7137 16.5901C15.4896 16.5901 15.2655 16.5043 15.0948 16.3336L12.0002 13.2381L8.90646 16.3327C8.73489 16.5034 8.51076 16.5892 8.28753 16.5892C8.06343 16.5892 7.8393 16.5034 7.66859 16.3327C7.32631 15.9904 7.32631 15.4363 7.66859 15.0949L10.7623 12.0003L7.66773 8.90566C7.32545 8.56338 7.32545 8.00924 7.66773 7.66783C8.00914 7.32555 8.56328 7.32555 8.90556 7.66783L12.0002 10.7624L15.0948 7.66783C15.437 7.32555 15.9903 7.32555 16.3326 7.66783C16.6749 8.00924 16.6749 8.56338 16.3326 8.90566L13.238 12.0003L16.3327 15.0958Z" fill="#747474"/>
</svg>
